<svg width="32" height="45" viewBox="0 0 32 45" fill="none" xmlns="http://www.w3.org/2000/svg">
<path d="M12 39C15.1238 40.2741 16.8761 40.3913 20 39" stroke="black" stroke-width="2.5" stroke-linecap="round"/>
<path d="M12 42C15.1238 43.2741 16.8761 43.3913 20 42" stroke="black" stroke-width="2.5" stroke-linecap="round"/>
<path d="M11.669 36C11.5195 32.0949 11.1896 30.2185 9.75541 27.9527C2.51314 23.4737 0.942486 16.0828 2.60452 11.003C4.26655 5.92308 9.85193 2.83156 16.2517 2C25.1557 2.56919 28.647 6.66107 29.7981 13.1154C30.9492 19.5697 27.1439 27.9545 19.2714 28.1538C18.2979 25.7382 17.7558 24.2247 19.1221 21.7663C22.2959 21.7928 23.5698 21.7015 24.1588 20.9615C26.5176 18.2483 26.4731 16.7295 25.1362 14.0962C22.6799 10.4234 21.9994 10.6357 19.1221 10.1982C14.6857 9.1042 13.3863 10.0756 11.669 12.6124C6.82719 13.6037 5.65014 14.7004 7.23749 17.9438C7.42969 20.1145 8.09005 20.8576 9.75541 21.7663C12.4361 24.1251 13.4981 23.4343 15.2948 21.7663" stroke="black" stroke-width="2.5" stroke-linecap="round"/>
</svg>
