<svg width="32" height="45" viewBox="0 0 32 45" fill="none" xmlns="http://www.w3.org/2000/svg">
<path d="M14.8857 21.3144C13.4786 22.9696 12.4818 22.862 10.5176 21.7323C8.01273 21.7129 6.81449 21.486 7.3456 18.2851C5.28668 16.4951 4.88427 15.4064 6.9816 13.1143C7.48677 11.9252 8.1759 11.5694 10.2576 11.5997C9.81158 10.8246 10.1448 10.5855 10.9856 10.2417C13.749 7.46903 15.4576 7.4703 18.6817 9.14486C22.175 9.50985 23.1395 9.46698 24.9999 13.1143C25.6594 13.7255 25.4523 14.5443 24.9999 15.5C26.4766 17.6987 25.8055 17.651 25.4999 18.5C25.3813 20.1999 25.4267 21.27 22.9999 21.7323C22.1892 22.4204 21.4442 22.5208 20.4999 21.7323C19.1309 22.2189 19.4277 22.665 19.0977 23.9259C18.6071 26.089 18.5877 27.0057 19.0977 28" stroke="black" stroke-width="2" stroke-linecap="round"/>
<path d="M12 39C15.1239 40.2741 16.8761 40.3913 20.0001 39" stroke="black" stroke-width="2.5" stroke-linecap="round"/>
<path d="M12 42C15.1239 43.2741 16.8761 43.3913 20.0001 42" stroke="black" stroke-width="2.5" stroke-linecap="round"/>
<path d="M11.6692 36.0004C11.5196 32.0953 11.1897 30.2189 9.75551 27.953C2.51315 23.4739 0.942473 16.083 2.60452 11.0031C4.26657 5.92312 9.85203 2.83157 16.2518 2C25.1559 2.5692 28.6473 6.66113 29.7984 13.1155C30.9495 19.5699 27.1442 27.9548 19.2716 28.1542" stroke="black" stroke-width="2.5" stroke-linecap="round"/>
</svg>
