<?xml version="1.0" encoding="UTF-8" standalone="no"?>
<svg
   width="28.441544"
   height="9.9969683"
   viewBox="0 0 28.441544 9.9969683"
   fill="none"
   version="1.1"
   id="svg990"
   sodipodi:docname="studly_logo.svg"
   inkscape:version="1.1 (c4e8f9e, 2021-05-24)"
   xmlns:inkscape="http://www.inkscape.org/namespaces/inkscape"
   xmlns:sodipodi="http://sodipodi.sourceforge.net/DTD/sodipodi-0.dtd"
   xmlns="http://www.w3.org/2000/svg"
   xmlns:svg="http://www.w3.org/2000/svg">
  <defs
     id="defs994" />
  <sodipodi:namedview
     id="namedview992"
     pagecolor="#ffffff"
     bordercolor="#666666"
     borderopacity="1.0"
     inkscape:pageshadow="2"
     inkscape:pageopacity="0.0"
     inkscape:pagecheckerboard="0"
     showgrid="false"
     inkscape:zoom="12.537802"
     inkscape:cx="15.672604"
     inkscape:cy="9.810332"
     inkscape:window-width="1296"
     inkscape:window-height="872"
     inkscape:window-x="123"
     inkscape:window-y="38"
     inkscape:window-maximized="0"
     inkscape:current-layer="svg990"
     fit-margin-top="0"
     fit-margin-left="0"
     fit-margin-right="0"
     fit-margin-bottom="0" />
  <g
     id="g1347"
     transform="matrix(0.20558255,0,0,0.20558255,-0.15473849,-0.15312299)">
    <g
       id="g1467">
      <path
         d="m 14.8857,21.3144 c -1.4071,1.6552 -2.4039,1.5476 -4.3681,0.4179 -2.50487,-0.0194 -3.70311,-0.2463 -3.172,-3.4472 -2.05892,-1.79 -2.46133,-2.8787 -0.364,-5.1708 0.50517,-1.1891 1.1943,-1.5449 3.276,-1.5146 -0.44602,-0.7751 -0.1128,-1.0142 0.728,-1.358 2.7634,-2.77267 4.472,-2.7714 7.6961,-1.09684 3.4933,0.36499 4.4578,0.32212 6.3182,3.96944 0.6595,0.6112 0.4524,1.43 0,2.3857 1.4767,2.1987 0.8056,2.151 0.5,3 -0.1186,1.6999 -0.0732,2.77 -2.5,3.2323 -0.8107,0.6881 -1.5557,0.7885 -2.5,0 -1.369,0.4866 -1.0722,0.9327 -1.4022,2.1936 -0.4906,2.1631 -0.51,3.0798 0,4.0741"
         stroke="#000000"
         stroke-width="2"
         stroke-linecap="round"
         id="path982" />
      <path
         d="m 12,39 c 3.1239,1.2741 4.8761,1.3913 8.0001,0"
         stroke="#000000"
         stroke-width="2.5"
         stroke-linecap="round"
         id="path984" />
      <path
         d="m 12,42 c 3.1239,1.2741 4.8761,1.3913 8.0001,0"
         stroke="#000000"
         stroke-width="2.5"
         stroke-linecap="round"
         id="path986" />
      <path
         d="M 11.6692,36.0004 C 11.5196,32.0953 11.1897,30.2189 9.75551,27.953 2.51315,23.4739 0.942473,16.083 2.60452,11.0031 4.26657,5.92312 9.85203,2.83157 16.2518,2 c 8.9041,0.5692 12.3955,4.66113 13.5466,11.1155 1.1511,6.4544 -2.6542,14.8393 -10.5268,15.0387"
         stroke="#000000"
         stroke-width="2.5"
         stroke-linecap="round"
         id="path988" />
    </g>
  </g>
  <g
     aria-label="Studly"
     id="text5292"
     style="font-size:6.17963px;line-height:1.25;fill:#000000;stroke-width:0.154491">
    <path
       d="M 9.4370562,6.9009738 Q 8.8376321,6.8947942 8.4606747,6.6352498 8.0837173,6.3695257 7.9601247,5.930772 q 0.067976,-0.117413 0.216287,-0.1853889 0.1544908,-0.074156 0.2904426,-0.061796 0.1112334,0.3337 0.3707778,0.5067296 0.2595445,0.1730297 0.6303223,0.16685 0.3954963,-0.00618 0.6365016,-0.2039278 0.241006,-0.2039277 0.241006,-0.549987 0,-0.5252685 -0.5499873,-0.6797593 L 8.973584,4.694846 Q 8.5410099,4.5712534 8.2938247,4.2746312 8.0466395,3.9718293 8.0466395,3.5577941 q 0,-0.3707778 0.1853889,-0.6612204 0.1915685,-0.2904426 0.5190889,-0.4511129 0.3337,-0.16685 0.7600945,-0.16685 0.4758315,0 0.8527892,0.2039277 0.383137,0.1977482 0.537627,0.5252686 -0.05562,0.098874 -0.185388,0.1977481 -0.123593,0.092694 -0.271904,0.1421315 -0.302802,-0.5252685 -0.9516631,-0.5252685 -0.3831371,0 -0.6241426,0.1977481 -0.2410056,0.1915686 -0.2410056,0.50055 0,0.4943704 0.6365019,0.6735797 l 0.7291963,0.1977481 q 0.4387541,0.117413 0.6859391,0.4387538 0.247185,0.3151611 0.247185,0.7662741 0,0.3954963 -0.197748,0.6921185 Q 10.53703,6.5858127 10.197151,6.7464831 9.8634507,6.9009738 9.4370562,6.9009738 Z"
       style="font-family:Borel;-inkscape-font-specification:'Borel, Normal'"
       id="path16809" />
    <path
       d="M 11.575112,6.8453572 Q 11.43298,6.7959201 11.327926,6.6970461 11.229052,6.5919924 11.198154,6.4498609 11.309388,6.3448072 11.457699,6.1841368 11.60601,6.0234664 11.748141,5.8009997 q 0.142132,-0.2286463 0.234826,-0.5129092 0.09887,-0.284263 0.09887,-0.6365019 v -0.83425 h -0.457292 q -0.04326,-0.098874 -0.04326,-0.2471852 0,-0.1483111 0.04326,-0.2471852 h 0.457292 V 2.2291737 q 0.117413,-0.043257 0.284263,-0.043257 0.148311,0 0.284263,0.043257 v 1.0937945 h 0.920765 q 0.04944,0.098874 0.04944,0.2471852 0,0.1483111 -0.04944,0.2471852 h -0.920765 v 1.2791833 q 0,0.617963 0.185389,0.951663 0.191569,0.3275204 0.537628,0.3275204 0.179209,0 0.179209,0.2719037 0,0.117413 -0.0618,0.1853889 -0.05562,0.074156 -0.16067,0.074156 -0.401676,0 -0.67976,-0.2224667 -0.271903,-0.2286463 -0.401676,-0.6365019 -0.148311,0.2595445 -0.32752,0.4696519 -0.17303,0.2039278 -0.346059,0.3275204 z"
       style="font-family:Borel;-inkscape-font-specification:'Borel, Normal'"
       id="path16811" />
    <path
       d="m 13.377729,6.3757053 q 0.129772,0 0.278083,-0.080335 0.148312,-0.080335 0.278084,-0.2471852 0.179209,-0.2471852 0.247185,-0.5808852 0.07416,-0.3337 0.07416,-0.6488611 V 3.9038534 q 0.05562,-0.018539 0.129772,-0.030898 0.07415,-0.012359 0.154491,-0.012359 0.142131,0 0.278083,0.043257 v 1.4274945 q 0,0.5376278 0.173029,0.784813 0.17303,0.2410055 0.543808,0.2410055 0.883687,0 0.883687,-1.2915426 V 3.9038534 q 0.04944,-0.018539 0.123593,-0.030898 0.07416,-0.012359 0.15449,-0.012359 0.148311,0 0.284263,0.043257 v 1.7797334 q 0,0.3275204 0.09887,0.5129092 0.105054,0.1792093 0.34606,0.1792093 0.105053,0 0.142131,0.086515 0.03708,0.086515 0.03708,0.1853889 0,0.098874 -0.05562,0.1792093 -0.04944,0.080335 -0.16685,0.080335 -0.593244,0 -0.803352,-0.5190889 -0.173029,0.2533648 -0.444933,0.3893166 -0.271904,0.1297723 -0.642681,0.1297723 -0.784813,0 -1.075256,-0.6674 -0.09887,0.1792092 -0.222467,0.3028018 -0.16685,0.16685 -0.389316,0.2657241 -0.216287,0.098874 -0.469652,0.098874 -0.08652,0 -0.129773,-0.086515 -0.04944,-0.080335 -0.04944,-0.1792093 0,-0.1050537 0.05562,-0.1853889 0.04944,-0.080335 0.16685,-0.080335 z"
       style="font-family:Borel;-inkscape-font-specification:'Borel, Normal'"
       id="path16813" />
    <path
       d="m 17.421041,6.3757053 q 0.210108,0 0.407856,-0.2039278 0.203928,-0.2101074 0.339879,-0.5623463 -0.0062,-0.086515 -0.0062,-0.1730296 0,-0.4696519 0.185389,-0.83425 0.185389,-0.3645982 0.50055,-0.5747056 0.32134,-0.2101074 0.729196,-0.2101074 0.216287,0 0.426394,0.086515 0.210108,0.080335 0.352239,0.2224667 V 1.6297496 q 0.117413,-0.043257 0.284263,-0.043257 0.142132,0 0.278084,0.043257 v 4.1094538 q 0,0.3398797 0.08651,0.4881908 0.09269,0.1483111 0.290443,0.1483111 0.08651,0 0.129772,0.074156 0.04944,0.074155 0.04944,0.1977481 0,0.098874 -0.05562,0.1792093 -0.04944,0.080335 -0.16685,0.080335 -0.587065,0 -0.790993,-0.4820112 -0.179209,0.2286464 -0.432574,0.3584186 -0.253365,0.1235926 -0.562346,0.1235926 -0.358419,0 -0.636502,-0.1544908 -0.271904,-0.1606703 -0.444934,-0.4387537 -0.383137,0.5932445 -1.007279,0.5932445 -0.08033,0 -0.129772,-0.074156 -0.04944,-0.074155 -0.04944,-0.1915685 0,-0.2657241 0.222466,-0.2657241 z m 1.316261,-0.9393037 q 0,0.4387537 0.197748,0.6921185 0.203928,0.2471852 0.556167,0.2471852 0.389317,0 0.624143,-0.2657241 0.241005,-0.2657241 0.241005,-0.6982981 V 4.7195645 q -0.123592,-0.16685 -0.315161,-0.2657241 -0.191568,-0.1050537 -0.395496,-0.1050537 -0.265724,0 -0.469652,0.1421315 -0.203928,0.1421315 -0.321341,0.3893167 -0.117413,0.2410056 -0.117413,0.5561667 z"
       style="font-family:Borel;-inkscape-font-specification:'Borel, Normal'"
       id="path16815" />
    <path
       d="m 21.252122,6.9071535 q -0.08034,0 -0.129772,-0.074156 -0.04944,-0.074155 -0.04944,-0.1915685 0,-0.1235926 0.0618,-0.1915685 0.05562,-0.074156 0.154491,-0.074156 0.197748,0 0.426394,-0.1421315 0.228646,-0.1421315 0.444934,-0.3893167 -0.04944,-0.2286463 -0.08034,-0.5376277 -0.02472,-0.3089815 -0.03708,-0.7477353 -0.01236,-0.4387537 -0.01236,-1.0567166 h 0.0062 l -0.0062,-0.00618 q 0,-0.549987 0.01236,-0.9331241 0.01236,-0.383137 0.04944,-0.6426815 0.03708,-0.2595444 0.09269,-0.4387537 0.0618,-0.1853889 0.154491,-0.3337 0.135952,-0.22246668 0.3337,-0.32134075 0.203928,-0.0988741 0.444933,-0.0988741 0.482011,0 0.741556,0.42639443 0.259544,0.4263945 0.259544,1.1741297 0,0.8960463 -0.352239,1.8415297 -0.352239,0.9454833 -1.007279,1.8044519 0.08651,0.2039278 0.253364,0.3089815 0.16685,0.098874 0.383137,0.098874 0.08651,0 0.135952,0.074156 0.05562,0.067976 0.05562,0.1915685 0,0.2595445 -0.228646,0.2595445 -0.3337,0 -0.593245,-0.1421315 -0.259544,-0.1421315 -0.401676,-0.3645982 -0.512909,0.5067297 -1.112333,0.5067297 z m 1.32862,-3.3740779 q 0,0.6488611 0.0062,1.069076 0.01236,0.4202148 0.0309,0.6921185 0.469652,-0.7786334 0.710658,-1.5201889 0.241005,-0.7477352 0.241005,-1.452213 0,-0.5129093 -0.117413,-0.784813 -0.117413,-0.2780834 -0.3337,-0.2780834 -0.241005,0 -0.364598,0.284263 -0.0618,0.1483111 -0.105054,0.3769574 -0.03708,0.2224667 -0.05562,0.6056037 -0.01236,0.3831371 -0.01236,1.0072797 z"
       style="font-family:Borel;-inkscape-font-specification:'Borel, Normal'"
       id="path16817" />
    <path
       d="m 23.386605,6.9071535 q -0.09269,0 -0.142131,-0.074156 -0.05562,-0.074155 -0.05562,-0.1915685 0,-0.1235926 0.0618,-0.1915685 0.0618,-0.067976 0.16067,-0.067976 0.438754,0 0.778633,-0.2471852 0.34606,-0.2533648 0.543808,-0.6921185 0.197748,-0.4387537 0.197748,-1.0011 V 3.9038534 q 0.05562,-0.018539 0.129772,-0.030898 0.07416,-0.012359 0.154491,-0.012359 0.142131,0 0.278083,0.043257 v 1.4274945 q 0,1.0258185 0.747735,1.0258185 0.438754,0 0.642682,-0.3522389 Q 27.094383,5.646509 27.094383,5.028546 V 3.9038534 q 0.129772,-0.043257 0.278084,-0.043257 0.15449,0 0.284263,0.043257 V 6.480759 q 0.129772,-0.092694 0.265724,-0.1792092 0.142131,-0.092695 0.241005,-0.1483112 0.123593,0.074156 0.191569,0.1915686 0.06798,0.1174129 0.08651,0.2719037 -0.09269,0.061796 -0.241006,0.1606703 -0.142132,0.092695 -0.290443,0.1915686 -0.148311,0.098874 -0.253364,0.16685 V 8.550935 q 0,1.4460334 -1.056717,1.4460334 -0.488191,0 -0.766274,-0.2904426 -0.271904,-0.2904426 -0.271904,-0.7971723 0,-1.1308722 1.544908,-2.119613 V 6.4992979 q -0.352239,0.4078556 -0.939304,0.4078556 -0.451113,0 -0.747735,-0.2224667 Q 25.129261,6.4622201 25.011848,6.0358257 24.733765,6.4436812 24.31355,6.6785072 23.899515,6.9071535 23.386605,6.9071535 Z m 2.731397,1.9898408 q 0,0.2657241 0.123592,0.4140352 0.123593,0.1544907 0.33988,0.1544907 0.525269,0 0.525269,-0.9145852 V 7.4447813 q -0.988741,0.6982981 -0.988741,1.452213 z"
       style="font-family:Borel;-inkscape-font-specification:'Borel, Normal'"
       id="path16819" />
  </g>
  <text
     xml:space="preserve"
     style="font-style:normal;font-weight:normal;font-size:40px;line-height:1.25;font-family:sans-serif;fill:#000000;fill-opacity:1;stroke:none"
     x="12.504267"
     y="8.6082382"
     id="text3024"><tspan
       sodipodi:role="line"
       id="tspan3022"
       x="12.504267"
       y="8.6082382" /></text>
  <text
     xml:space="preserve"
     style="font-style:normal;font-weight:normal;font-size:40px;line-height:1.25;font-family:sans-serif;fill:#000000;fill-opacity:1;stroke:none"
     x="36.578236"
     y="-13.757781"
     id="text3490"><tspan
       sodipodi:role="line"
       id="tspan3488"
       x="36.578236"
       y="-13.757781" /></text>
</svg>
